<svg width="467" height="466" viewBox="0 0 467 466" fill="none" xmlns="http://www.w3.org/2000/svg">
<g clip-path="url(#clip0)">
<path d="M194.105 441.312C194.105 454.566 204.848 465.312 218.105 465.312H250.105C263.359 465.312 274.105 454.566 274.105 441.312V393.312H194.105V441.312Z" fill="#EBEBEB"/>
<path d="M156.406 306.566C149.41 302.059 142.813 296.949 136.695 291.305C131.473 311.387 111.734 324.121 91.2852 320.605C70.832 317.09 56.4805 298.5 58.2578 277.824C60.0352 257.148 77.3516 241.281 98.1055 241.312C99.3281 241.312 100.504 241.566 101.672 241.672C94.0898 223.848 90.1797 204.68 90.1836 185.312H80L74.4727 211.605C73.9219 214.227 72.0977 216.398 69.6133 217.391C67.125 218.387 64.3086 218.07 62.1055 216.551L40 201.312L16 225.312L31.1992 247.414C32.7187 249.621 33.0352 252.438 32.0391 254.922C31.0469 257.41 28.875 259.234 26.2578 259.781L0 265.312V297.312L26.2891 302.84C28.9063 303.391 31.0781 305.215 32.0742 307.699C33.0664 310.184 32.75 313.004 31.2305 315.207L16 337.312L40 361.312L62.1055 346.109C64.3086 344.59 67.1289 344.27 69.6172 345.266C72.1055 346.258 73.9297 348.434 74.4805 351.055L80 377.312H112L117.52 351.016C118.07 348.391 119.895 346.219 122.383 345.227C124.871 344.23 127.691 344.547 129.895 346.07L152 361.312L177.113 336.199C174.48 323.938 167.016 313.254 156.406 306.566Z" fill="#CDB6FF"/>
<path d="M378.105 185.312C378.098 116.27 329.086 56.9453 261.285 43.9141C193.484 30.8828 125.973 67.8047 100.371 131.926C74.7695 196.047 98.2774 269.316 156.406 306.566C169.727 314.824 177.91 329.312 178.105 344.984V377.312C178.105 390.566 188.848 401.312 202.105 401.312H266.105C279.359 401.312 290.105 390.566 290.105 377.312V345.648C290.309 329.605 298.656 314.77 312.266 306.27C353.336 279.754 378.133 234.199 378.105 185.312V185.312Z" fill="#FFB41F"/>
<path d="M427.648 100.68L452.801 81.8164L424 43.4141L398.848 62.2773C393.672 66.1562 386.668 66.5352 381.102 63.2383C375.535 59.9414 372.504 53.6172 373.414 47.2148L377.855 16.1016L330.336 9.3125L325.895 40.4219C324.984 46.832 320.301 52.0586 314.031 53.6641C307.762 55.2734 301.141 52.9453 297.258 47.7656L278.398 22.6133L240 51.4141L258.855 76.5664C262.734 81.7461 263.113 88.7461 259.816 94.3125C256.52 99.8789 250.195 102.91 243.793 102L212.68 97.5586L205.887 145.078L237.008 149.52C243.414 150.434 248.641 155.117 250.246 161.387C251.852 167.656 249.523 174.277 244.344 178.16L219.199 197.023L248 235.422L273.145 216.566C278.32 212.684 285.328 212.301 290.898 215.598C296.465 218.895 299.5 225.223 298.586 231.629L294.105 262.734L341.625 269.527L346.105 238.406C347.02 232 351.703 226.777 357.973 225.172C364.242 223.562 370.863 225.895 374.742 231.07L393.609 256.215L432.008 227.414L413.137 202.27C409.254 197.094 408.871 190.086 412.168 184.516C415.465 178.949 421.793 175.914 428.199 176.832L459.312 181.277L466.105 133.758L434.992 129.312C428.59 128.395 423.367 123.715 421.758 117.445C420.152 111.18 422.477 104.562 427.648 100.68ZM336 195.414C305.07 195.414 280 170.344 280 139.414C280 108.488 305.07 83.4141 336 83.4141C366.93 83.4141 392 108.488 392 139.414C392 170.344 366.93 195.414 336 195.414Z" fill="#3EEEB3"/>
<path d="M194.105 417.312H274.105V433.312H194.105V417.312Z" fill="#9E9E9E"/>
<path d="M226.105 353.312H242.105V377.312H226.105V353.312Z" fill="#FFAA00"/>
<path d="M242.105 337.312H226.105C226.098 316.16 213.055 297.199 193.305 289.629C153.934 274.234 126.582 237.984 122.59 195.898C118.598 153.812 138.641 113.066 174.414 90.543L182.902 104.078C152.23 123.379 135.039 158.309 138.461 194.391C141.879 230.469 165.324 261.547 199.078 274.742C225.008 284.66 242.125 309.551 242.105 337.312V337.312Z" fill="#FFAA00"/>
</g>
<defs>
<clipPath id="clip0">
<rect width="466.104" height="466" fill="white"/>
</clipPath>
</defs>
</svg>
