<svg width="512" height="512" viewBox="0 0 512 512" fill="none" xmlns="http://www.w3.org/2000/svg">
<path d="M304.363 466.916H207.678C204.46 466.874 201.284 466.18 198.341 464.877C195.398 463.575 192.75 461.689 190.555 459.336C188.36 456.982 186.664 454.208 185.57 451.181C184.476 448.155 184.006 444.938 184.189 441.724V434.342C184.514 396.077 171.576 358.88 147.574 329.078C124.635 301.216 113.349 265.57 116.072 229.583C118.751 197.114 132.545 166.561 155.127 143.076C177.709 119.592 207.698 104.612 240.038 100.663C267.424 97.5228 295.127 102.52 319.69 115.03C344.253 127.54 364.585 147.009 378.149 171.006C391.713 195.003 397.907 222.464 395.957 249.96C394.008 277.456 384.001 303.768 367.187 325.611C342.173 356.895 328.316 395.633 327.812 435.684V443.503C327.795 449.713 325.318 455.664 320.923 460.053C316.529 464.441 310.574 466.909 304.363 466.916V466.916ZM256.173 113.609C251.291 113.608 246.412 113.878 241.56 114.418C212.42 117.978 185.399 131.477 165.054 152.641C144.708 173.804 132.284 201.336 129.875 230.594C127.409 263.032 137.573 295.169 158.243 320.291C184.279 352.57 198.329 392.872 198.006 434.342V441.724C197.837 443.114 197.959 444.523 198.362 445.864C198.764 447.204 199.441 448.447 200.347 449.513C201.254 450.58 202.371 451.447 203.629 452.061C204.887 452.674 206.259 453.021 207.658 453.078H304.363C306.906 453.077 309.344 452.068 311.145 450.274C312.946 448.479 313.963 446.045 313.974 443.503V435.684C314.469 392.573 329.339 350.859 356.227 317.156C373.327 295.113 382.565 267.985 382.471 240.086C382.461 222.299 378.704 204.714 371.444 188.476C364.184 172.238 353.584 157.712 340.335 145.844C317.266 125.007 287.259 113.514 256.173 113.609V113.609Z" fill="#EE97B6"/>
<path d="M327.666 394.814H185.047C183.212 394.814 181.452 394.085 180.154 392.788C178.857 391.49 178.128 389.73 178.128 387.895C178.128 386.06 178.857 384.301 180.154 383.003C181.452 381.706 183.212 380.977 185.047 380.977H327.666C329.501 380.977 331.261 381.706 332.559 383.003C333.856 384.301 334.585 386.06 334.585 387.895C334.585 389.73 333.856 391.49 332.559 392.788C331.261 394.085 329.501 394.814 327.666 394.814Z" fill="#EE97B6"/>
<path d="M321.322 430.869H190.817C188.982 430.869 187.222 430.14 185.924 428.842C184.627 427.545 183.898 425.785 183.898 423.95C183.898 422.115 184.627 420.355 185.924 419.058C187.222 417.76 188.982 417.031 190.817 417.031H321.322C323.157 417.031 324.916 417.76 326.214 419.058C327.511 420.355 328.24 422.115 328.24 423.95C328.24 425.785 327.511 427.545 326.214 428.842C324.916 430.14 323.157 430.869 321.322 430.869Z" fill="#EE97B6"/>
<path d="M256 498.162C245.881 498.151 236.18 494.127 229.026 486.972C221.871 479.817 217.846 470.116 217.835 459.998C217.835 458.163 218.564 456.403 219.862 455.105C221.159 453.808 222.919 453.079 224.754 453.079C226.589 453.079 228.349 453.808 229.647 455.105C230.944 456.403 231.673 458.163 231.673 459.998C231.673 466.449 234.236 472.637 238.798 477.199C243.36 481.761 249.548 484.324 256 484.324C262.452 484.324 268.64 481.761 273.202 477.199C277.764 472.637 280.327 466.449 280.327 459.998C280.327 458.163 281.056 456.403 282.353 455.105C283.651 453.808 285.411 453.079 287.246 453.079C289.081 453.079 290.841 453.808 292.138 455.105C293.436 456.403 294.165 458.163 294.165 459.998C294.154 470.116 290.129 479.817 282.974 486.972C275.819 494.127 266.119 498.151 256 498.162V498.162Z" fill="#EE97B6"/>
<path d="M256 394.842C254.165 394.842 252.405 394.113 251.108 392.815C249.81 391.518 249.081 389.758 249.081 387.923V305.816C249.081 303.981 249.81 302.221 251.108 300.924C252.405 299.626 254.165 298.897 256 298.897C257.835 298.897 259.595 299.626 260.892 300.924C262.19 302.221 262.919 303.981 262.919 305.816V387.923C262.919 389.758 262.19 391.518 260.892 392.815C259.595 394.113 257.835 394.842 256 394.842V394.842Z" fill="#EE97B6"/>
<path d="M256 312.735C254.165 312.735 252.406 312.006 251.108 310.708L205.789 265.396C204.529 264.091 203.832 262.343 203.847 260.529C203.863 258.715 204.591 256.98 205.874 255.697C207.157 254.414 208.892 253.686 210.706 253.671C212.52 253.655 214.268 254.352 215.573 255.613L256 296.047L296.427 255.626C297.732 254.366 299.48 253.669 301.294 253.685C303.108 253.7 304.843 254.428 306.126 255.711C307.409 256.994 308.137 258.729 308.153 260.543C308.168 262.357 307.471 264.105 306.211 265.41L260.892 310.722C259.592 312.014 257.833 312.739 256 312.735V312.735Z" fill="#EE97B6"/>
<path d="M256 60.5959C254.165 60.5959 252.405 59.867 251.108 58.5694C249.81 57.2719 249.081 55.512 249.081 53.677V20.7568C249.081 18.9218 249.81 17.1619 251.108 15.8644C252.405 14.5668 254.165 13.8379 256 13.8379C257.835 13.8379 259.595 14.5668 260.892 15.8644C262.19 17.1619 262.919 18.9218 262.919 20.7568V53.677C262.919 55.512 262.19 57.2719 260.892 58.5694C259.595 59.867 257.835 60.5959 256 60.5959Z" fill="#EE97B6"/>
<path d="M475.33 247.005H442.41C440.575 247.005 438.815 246.276 437.517 244.979C436.22 243.681 435.491 241.921 435.491 240.086C435.491 238.251 436.22 236.492 437.517 235.194C438.815 233.896 440.575 233.167 442.41 233.167H475.33C477.165 233.167 478.925 233.896 480.222 235.194C481.52 236.492 482.249 238.251 482.249 240.086C482.249 241.921 481.52 243.681 480.222 244.979C478.925 246.276 477.165 247.005 475.33 247.005Z" fill="#EE97B6"/>
<path d="M69.5906 247.005H36.6704C34.8354 247.005 33.0755 246.276 31.778 244.979C30.4804 243.681 29.7515 241.921 29.7515 240.086C29.7515 238.251 30.4804 236.492 31.778 235.194C33.0755 233.896 34.8354 233.167 36.6704 233.167H69.5906C71.4256 233.167 73.1855 233.896 74.483 235.194C75.7806 236.492 76.5095 238.251 76.5095 240.086C76.5095 241.921 75.7806 243.681 74.483 244.979C73.1855 246.276 71.4256 247.005 69.5906 247.005Z" fill="#EE97B6"/>
<path d="M124.188 115.193C122.353 115.193 120.593 114.464 119.296 113.166L96.0208 89.8906C94.7605 88.5857 94.0631 86.838 94.0789 85.0238C94.0946 83.2097 94.8223 81.4744 96.1051 80.1915C97.3879 78.9087 99.1233 78.1811 100.937 78.1653C102.752 78.1495 104.499 78.8469 105.804 80.1073L129.079 103.383C130.047 104.35 130.705 105.583 130.972 106.925C131.239 108.267 131.102 109.658 130.579 110.922C130.055 112.186 129.168 113.266 128.031 114.027C126.893 114.787 125.556 115.193 124.188 115.193V115.193Z" fill="#EE97B6"/>
<path d="M387.812 115.193C386.444 115.193 385.107 114.787 383.969 114.027C382.832 113.266 381.945 112.186 381.421 110.922C380.898 109.658 380.761 108.267 381.028 106.925C381.294 105.583 381.953 104.35 382.921 103.383L406.196 80.1073C407.501 78.8469 409.248 78.1495 411.063 78.1653C412.877 78.1811 414.612 78.9087 415.895 80.1915C417.178 81.4744 417.905 83.2097 417.921 85.0238C417.937 86.838 417.239 88.5857 415.979 89.8906L392.704 113.166C391.407 114.464 389.647 115.193 387.812 115.193V115.193Z" fill="#EE97B6"/>
</svg>
