<svg width="512" height="512" viewBox="0 0 512 512" fill="none" xmlns="http://www.w3.org/2000/svg">
<path d="M256 152C235.431 152 215.323 158.099 198.221 169.527C181.118 180.955 167.788 197.197 159.917 216.201C152.045 235.204 149.986 256.115 153.998 276.289C158.011 296.463 167.916 314.994 182.461 329.539C197.006 344.084 215.537 353.989 235.711 358.002C255.885 362.015 276.796 359.955 295.799 352.083C314.803 344.212 331.045 330.882 342.473 313.779C353.901 296.677 360 276.569 360 256C359.968 228.427 349.001 201.993 329.504 182.496C310.007 162.999 283.573 152.032 256 152V152ZM256 344C238.595 344 221.581 338.839 207.11 329.169C192.638 319.5 181.359 305.756 174.699 289.676C168.038 273.596 166.295 255.902 169.691 238.832C173.086 221.762 181.468 206.082 193.775 193.775C206.082 181.468 221.762 173.086 238.832 169.691C255.902 166.295 273.596 168.038 289.676 174.699C305.756 181.359 319.5 192.638 329.169 207.11C338.839 221.581 344 238.595 344 256C343.973 279.331 334.692 301.698 318.195 318.195C301.698 334.692 279.331 343.972 256 344Z" fill="#9A8BF6"/>
<path d="M48 40H64V56H48V40Z" fill="#9A8BF6"/>
<path d="M80 40H96V56H80V40Z" fill="#9A8BF6"/>
<path d="M112 40H128V56H112V40Z" fill="#9A8BF6"/>
<path d="M496 184V40C496 33.6348 493.471 27.5303 488.971 23.0294C484.47 18.5286 478.365 16 472 16H328C321.635 16 315.53 18.5286 311.029 23.0294C306.529 27.5303 304 33.6348 304 40V129.024C301.352 128.024 298.712 126.984 296 126.152V96C296 93.8783 295.157 91.8434 293.657 90.3431C292.157 88.8429 290.122 88 288 88H224C221.878 88 219.843 88.8429 218.343 90.3431C216.843 91.8434 216 93.8783 216 96V126.152C213.288 126.952 210.648 128.024 208 129.024V40C208 33.6348 205.471 27.5303 200.971 23.0294C196.47 18.5286 190.365 16 184 16H40C33.6348 16 27.5303 18.5286 23.0294 23.0294C18.5286 27.5303 16 33.6348 16 40V184C16 190.365 18.5286 196.47 23.0294 200.971C27.5303 205.471 33.6348 208 40 208H129.024C128.024 210.648 126.976 213.288 126.144 216H96C93.8783 216 91.8434 216.843 90.3431 218.343C88.8429 219.843 88 221.878 88 224V288C88 290.122 88.8429 292.157 90.3431 293.657C91.8434 295.157 93.8783 296 96 296H126.144C126.944 298.712 128.024 301.352 129.024 304H40C33.6348 304 27.5303 306.529 23.0294 311.029C18.5286 315.53 16 321.635 16 328V472C16 478.365 18.5286 484.47 23.0294 488.971C27.5303 493.471 33.6348 496 40 496H184C190.365 496 196.47 493.471 200.971 488.971C205.471 484.47 208 478.365 208 472V382.976C210.648 383.976 213.288 385.016 216 385.848V416C216 418.122 216.843 420.157 218.343 421.657C219.843 423.157 221.878 424 224 424H288C290.122 424 292.157 423.157 293.657 421.657C295.157 420.157 296 418.122 296 416V385.848C298.712 385.048 301.352 383.976 304 382.976V472C304 478.365 306.529 484.47 311.029 488.971C315.53 493.471 321.635 496 328 496H472C478.365 496 484.47 493.471 488.971 488.971C493.471 484.47 496 478.365 496 472V328C496 321.635 493.471 315.53 488.971 311.029C484.47 306.529 478.365 304 472 304H382.976C383.976 301.352 385.024 298.712 385.856 296H416C418.122 296 420.157 295.157 421.657 293.657C423.157 292.157 424 290.122 424 288V224C424 221.878 423.157 219.843 421.657 218.343C420.157 216.843 418.122 216 416 216H385.856C385.056 213.288 383.976 210.648 382.976 208H472C478.365 208 484.47 205.471 488.971 200.971C493.471 196.47 496 190.365 496 184V184ZM472 192H376.568L397.424 171.152C398.168 170.409 398.758 169.527 399.16 168.556C399.563 167.584 399.77 166.543 399.77 165.492C399.77 164.441 399.563 163.4 399.16 162.428C398.758 161.457 398.168 160.575 397.424 159.832L352.168 114.576C351.425 113.832 350.543 113.242 349.572 112.84C348.6 112.437 347.559 112.23 346.508 112.23C345.457 112.23 344.416 112.437 343.444 112.84C342.473 113.242 341.591 113.832 340.848 114.576L320 135.424V80H480V184C480 186.122 479.157 188.157 477.657 189.657C476.157 191.157 474.122 192 472 192V192ZM328 32H472C474.122 32 476.157 32.8429 477.657 34.3431C479.157 35.8434 480 37.8783 480 40V64H320V40C320 37.8783 320.843 35.8434 322.343 34.3431C323.843 32.8429 325.878 32 328 32V32ZM40 32H184C186.122 32 188.157 32.8429 189.657 34.3431C191.157 35.8434 192 37.8783 192 40V64H32V40C32 37.8783 32.8429 35.8434 34.3431 34.3431C35.8434 32.8429 37.8783 32 40 32V32ZM32 184V80H192V135.424L171.152 114.576C170.409 113.832 169.527 113.242 168.556 112.84C167.584 112.437 166.543 112.23 165.492 112.23C164.441 112.23 163.4 112.437 162.428 112.84C161.457 113.242 160.575 113.832 159.832 114.576L114.576 159.832C113.832 160.575 113.242 161.457 112.84 162.428C112.437 163.4 112.23 164.441 112.23 165.492C112.23 166.543 112.437 167.584 112.84 168.556C113.242 169.527 113.832 170.409 114.576 171.152L135.432 192H40C37.8783 192 35.8434 191.157 34.3431 189.657C32.8429 188.157 32 186.122 32 184V184ZM40 320H135.432L114.576 340.848C113.094 342.319 112.251 344.315 112.232 346.403C112.212 348.491 113.017 350.502 114.472 352H32V328C32 325.878 32.8429 323.843 34.3431 322.343C35.8434 320.843 37.8783 320 40 320V320ZM184 480H40C37.8783 480 35.8434 479.157 34.3431 477.657C32.8429 476.157 32 474.122 32 472V368H130.4L159.816 397.424C160.559 398.168 161.441 398.758 162.412 399.16C163.384 399.563 164.425 399.77 165.476 399.77C166.527 399.77 167.568 399.563 168.54 399.16C169.511 398.758 170.393 398.168 171.136 397.424L192 376.576V472C192 474.122 191.157 476.157 189.657 477.657C188.157 479.157 186.122 480 184 480ZM472 480H328C325.878 480 323.843 479.157 322.343 477.657C320.843 476.157 320 474.122 320 472V376.576L340.848 397.424C341.591 398.168 342.473 398.758 343.444 399.16C344.416 399.563 345.457 399.77 346.508 399.77C347.559 399.77 348.6 399.563 349.572 399.16C350.543 398.758 351.425 398.168 352.168 397.424L381.6 368H480V472C480 474.122 479.157 476.157 477.657 477.657C476.157 479.157 474.122 480 472 480V480ZM480 328V352H397.528C398.983 350.502 399.788 348.491 399.768 346.403C399.749 344.315 398.906 342.319 397.424 340.848L376.568 320H472C474.122 320 476.157 320.843 477.657 322.343C479.157 323.843 480 325.878 480 328V328ZM408 232V280H379.808C378.033 279.999 376.309 280.587 374.905 281.674C373.502 282.76 372.5 284.282 372.056 286C369.262 296.834 364.953 307.219 359.256 316.848C358.353 318.376 357.984 320.162 358.207 321.923C358.43 323.684 359.232 325.321 360.488 326.576L380.424 346.504L346.472 380.456L326.544 360.52C325.29 359.266 323.654 358.465 321.895 358.242C320.135 358.019 318.352 358.387 316.824 359.288C307.189 364.979 296.802 369.288 285.968 372.088C284.25 372.532 282.728 373.534 281.642 374.937C280.555 376.341 279.967 378.065 279.968 379.84V408H232V379.808C232.001 378.033 231.413 376.309 230.326 374.905C229.24 373.502 227.718 372.5 226 372.056C215.166 369.256 204.779 364.948 195.144 359.256C193.616 358.355 191.833 357.987 190.073 358.21C188.314 358.433 186.678 359.234 185.424 360.488L165.496 380.424L131.544 346.472L151.48 326.544C152.736 325.289 153.538 323.652 153.761 321.891C153.984 320.13 153.615 318.344 152.712 316.816C147.015 307.187 142.706 296.802 139.912 285.968C139.468 284.25 138.466 282.728 137.063 281.642C135.659 280.555 133.935 279.967 132.16 279.968H104V232H132.192C133.967 232.001 135.691 231.413 137.095 230.326C138.498 229.24 139.5 227.718 139.944 226C142.738 215.166 147.047 204.781 152.744 195.152C153.647 193.624 154.016 191.838 153.793 190.077C153.57 188.316 152.768 186.679 151.512 185.424L131.576 165.496L165.528 131.544L185.456 151.48C186.71 152.734 188.346 153.535 190.105 153.758C191.865 153.981 193.648 153.613 195.176 152.712C204.811 147.021 215.198 142.712 226.032 139.912C227.75 139.468 229.272 138.466 230.358 137.063C231.445 135.659 232.033 133.935 232.032 132.16V104H280.032V132.192C280.031 133.967 280.619 135.691 281.706 137.095C282.792 138.498 284.314 139.5 286.032 139.944C296.866 142.744 307.253 147.052 316.888 152.744C318.418 153.637 320.2 154 321.957 153.778C323.714 153.555 325.349 152.758 326.608 151.512L346.536 131.576L380.488 165.528L360.552 185.456C359.296 186.711 358.494 188.348 358.271 190.109C358.048 191.87 358.417 193.656 359.32 195.184C365.017 204.813 369.326 215.198 372.12 226.032C372.564 227.75 373.566 229.272 374.969 230.358C376.373 231.445 378.097 232.033 379.872 232.032L408 232Z" fill="#9A8BF6"/>
<path d="M336 40H352V56H336V40Z" fill="#9A8BF6"/>
<path d="M368 40H384V56H368V40Z" fill="#9A8BF6"/>
<path d="M400 40H416V56H400V40Z" fill="#9A8BF6"/>
<path d="M48 328H64V344H48V328Z" fill="#9A8BF6"/>
<path d="M80 328H96V344H80V328Z" fill="#9A8BF6"/>
</svg>
