<svg width="512" height="512" viewBox="0 0 512 512" fill="none" xmlns="http://www.w3.org/2000/svg">
<g clip-path="url(#clip0)">
<path d="M502.089 246.039C493.666 235.09 480.928 228.297 467.142 227.401C453.347 226.507 439.846 231.595 430.076 241.363L373.862 297.572C365.324 287.364 352.5 280.857 338.182 280.857H278.462C277.54 280.857 276.683 280.443 276.11 279.721L269.823 271.799C260.089 259.535 245.525 252.502 229.867 252.502H186.067C169.731 252.502 153.874 258.322 141.416 268.891L87.288 314.813C76.351 304.043 59.145 301.389 45.22 309.427L17.495 325.432C0.779957 335.082 -4.96804 356.53 4.68296 373.242L74.703 494.508C81.179 505.724 92.969 512 105.076 512C111.01 512 117.021 510.492 122.518 507.318L150.243 491.313C163.193 483.836 169.553 469.278 167.276 455.327H323.887C342.113 455.327 359.941 447.919 372.8 435.003L498.059 309.184C514.978 292.19 516.71 265.044 502.089 246.039V246.039ZM476.796 288.019L351.536 413.839C344.267 421.14 334.19 425.327 323.888 425.327H170.591H152.561L106.927 346.294L103.517 340.388L160.828 291.766C167.87 285.792 176.833 282.502 186.068 282.502H229.868C236.316 282.502 242.314 285.398 246.322 290.448L252.609 298.37C258.908 306.306 268.331 310.856 278.462 310.856H338.182C347.284 310.856 354.688 318.259 354.688 327.36C354.688 336.461 347.283 343.864 338.182 343.864H224.754C217.007 343.864 210.634 349.737 209.839 357.273C209.784 357.796 209.753 358.326 209.753 358.864C209.753 367.148 216.47 373.864 224.755 373.864H284.354H338.183C363.206 373.864 383.666 354.001 384.645 329.217L451.292 262.575C455.011 258.857 459.95 256.995 465.197 257.338C470.445 257.679 475.101 260.161 478.308 264.329C483.793 271.46 483.143 281.644 476.796 288.019ZM135.242 465.333L107.518 481.338C105.129 482.716 102.065 481.894 100.686 479.508L30.666 358.242C29.287 355.854 30.109 352.791 32.497 351.412L60.221 335.407C61.007 334.954 61.866 334.738 62.713 334.738C64.443 334.738 66.126 335.634 67.052 337.237L137.072 458.503C138.45 460.891 137.629 463.954 135.242 465.333V465.333Z" fill="#EE97B6"/>
<path d="M176.987 222H335.05C343.638 222 351.595 218.119 356.883 211.352C362.171 204.585 364.011 195.924 361.933 187.591L350.129 140.252C344.472 117.565 327.518 100.171 306.147 93.419C312.489 83.888 316.195 72.458 316.195 60.176C316.194 26.995 289.199 0 256.018 0C222.837 0 195.842 26.995 195.842 60.177C195.842 72.459 199.548 83.888 205.89 93.42C184.519 100.172 167.565 117.565 161.908 140.253L150.104 187.592C148.026 195.925 149.867 204.585 155.154 211.353C160.441 218.121 168.399 222 176.987 222V222ZM256.018 30C272.657 30 286.194 43.537 286.194 60.177C286.194 76.816 272.657 90.353 256.018 90.353C239.379 90.353 225.842 76.816 225.842 60.177C225.842 43.537 239.379 30 256.018 30V30ZM191.016 147.51C195.003 131.52 209.297 120.353 225.775 120.353H286.26C302.739 120.353 317.032 131.52 321.019 147.51L332.113 192H179.923L191.016 147.51Z" fill="#EE97B6"/>
</g>
<defs>
<clipPath id="clip0">
<rect width="512" height="512" fill="white"/>
</clipPath>
</defs>
</svg>
