<svg width="512" height="512" viewBox="0 0 512 512" fill="none" xmlns="http://www.w3.org/2000/svg">
<path d="M497 36.9531H431.297C431.535 29.6758 431.668 22.3555 431.668 15C431.668 6.71484 424.949 0 416.668 0H95.332C87.0508 0 80.332 6.71484 80.332 15C80.332 22.3555 80.4648 29.6758 80.7031 36.9531H15C6.71484 36.9531 0 43.668 0 51.9531C0 119.164 17.5664 182.574 49.4609 230.508C80.9883 277.895 122.984 305.074 168.352 307.719C178.637 318.91 189.508 328.035 200.832 334.996V401.664H175.668C145.246 401.664 120.5 426.414 120.5 456.832V481.996H119.434C111.148 481.996 104.434 488.715 104.434 496.996C104.434 505.281 111.148 511.996 119.434 511.996H392.566C400.852 511.996 407.566 505.281 407.566 496.996C407.566 488.715 400.852 481.996 392.566 481.996H391.5V456.832C391.5 426.414 366.754 401.664 336.332 401.664H311.168V334.996C322.492 328.039 333.367 318.91 343.652 307.719C389.016 305.074 431.012 277.895 462.543 230.508C494.438 182.574 512 119.164 512 51.9531C512 43.668 505.285 36.9531 497 36.9531ZM74.4375 213.891C48.1289 174.355 32.6719 122.645 30.3164 66.9531H82.3789C87.7891 135.414 103.859 198.695 128.977 248.926C132.977 256.926 137.16 264.484 141.5 271.602C116.551 262.18 93.4609 242.484 74.4375 213.891ZM361.5 456.832V482H150.5V456.832C150.5 442.957 161.789 431.664 175.668 431.664H336.332C350.211 431.664 361.5 442.957 361.5 456.832ZM281.168 401.664H230.832V348.031C239.078 350.203 247.48 351.332 256 351.332C264.52 351.332 272.922 350.203 281.168 348.031V401.664ZM290.457 312.344C289.781 312.621 289.133 312.957 288.512 313.328C277.91 318.602 267.016 321.332 256 321.332C244.988 321.332 234.098 318.602 223.5 313.336C222.871 312.957 222.219 312.621 221.535 312.336C209.773 306.117 198.395 296.727 187.633 284.387C187.066 283.578 186.43 282.832 185.723 282.152C175.039 269.469 164.988 253.867 155.809 235.508C128.242 180.379 112.32 107.891 110.508 30H401.492C399.676 107.891 383.754 180.383 356.191 235.508C347.012 253.867 336.961 269.469 326.281 282.152C325.57 282.832 324.926 283.582 324.363 284.391C313.602 296.734 302.219 306.121 290.457 312.344ZM437.562 213.891C418.539 242.484 395.449 262.18 370.5 271.602C374.84 264.484 379.023 256.926 383.023 248.926C408.141 198.695 424.207 135.414 429.621 66.9531H481.684C479.328 122.645 463.871 174.355 437.562 213.891Z" fill="#9A8BF7"/>
</svg>
